<svg id="Layer_1" data-name="Layer 1" xmlns="http://www.w3.org/2000/svg" viewBox="0 0 233.9 110.79"><defs><style>.cls-1{fill:#036;}.cls-2{fill:#1b5db3;}.cls-3{fill:#fff;}.cls-4{fill:#3294db;}</style></defs><title>blufiredev-logo</title><rect class="cls-1" y="0.39" width="110.39" height="110.39" rx="0.28"/><path class="cls-2" d="M90.65,110.77c.65-.66,23.12-24.18-7.6-48.2-13.79-10.78-.2-21.16,5.41-24.69l.12-.07.24-.15.63-.37.2-.12.51-.29.17-.1.31-.16c-.34.31-15.21,11.39,3.49,26C125,86.57,91.48,110.2,90.65,110.77Z" transform="translate(-7.31 -5.85)"/><path class="cls-3" d="M83.05,62.57c-13.79-10.78-.2-21.16,5.41-24.69C79.13,43.61,44.38,68.1,75.72,99h0l0,0a.5.5,0,0,0,0-.07c-.86-1.13-8.9-12-5.81-19.73,2.65-6.6,12.46-.54,13.7.26l.08,0c15.06,8.63,9,26.6,7,31.28C91.3,110.11,113.77,86.59,83.05,62.57Z" transform="translate(-7.31 -5.85)"/><path class="cls-4" d="M69.85,79.18c-3.09,7.7,5,18.6,5.81,19.73a.5.5,0,0,1,0,.07l0,0c-.12-.43-6.57-23.22,8-19.48l-.05,0-.08,0C82.31,78.64,72.5,72.58,69.85,79.18Z" transform="translate(-7.31 -5.85)"/><path class="cls-2" d="M153.58,13.12c.14,1.15.22,2.1.24,2.83s0,2,0,3.81,0,3.16-.07,4.08c-.14,2.45-.83,4.22-2.08,5.33A7.6,7.6,0,0,1,155.38,35a37.38,37.38,0,0,1,.55,6.68c0,2.42,0,4,0,4.81s-.12,1.76-.28,2.94a8.24,8.24,0,0,1-.72,2.66,12.87,12.87,0,0,1-1.42,2,5.34,5.34,0,0,1-2.25,1.59,22.55,22.55,0,0,1-8.1,1.31l-8.58-.48v-50l7.2-.69q7.68,0,9.89,2.77a15.16,15.16,0,0,1,1.28,1.94A7.46,7.46,0,0,1,153.58,13.12ZM141.06,27.51a23.41,23.41,0,0,0,4.67-.28q1.07-.27,1.62-.45a1.81,1.81,0,0,0,1-.79,7.79,7.79,0,0,0,.59-1,5.68,5.68,0,0,0,.31-1.48,16,16,0,0,0,.14-1.87V19.34c0-4.15-.35-6.61-1-7.4A5.23,5.23,0,0,0,145,10a30.89,30.89,0,0,0-3.94-.24h-2.42l.27,1.73V25.78l-.27,1.73ZM143.13,53a11.76,11.76,0,0,0,6.51-1.52q1.52-1,1.73-4.71c0-.78.07-1.89.07-3.32V40.72A26.22,26.22,0,0,0,151.3,37c-.1-.37-.2-.89-.31-1.56a2.94,2.94,0,0,0-.45-1.31,8.44,8.44,0,0,1-.7-.94,1.83,1.83,0,0,0-1-.79,9.09,9.09,0,0,1-1.25-.52,12,12,0,0,0-3.8-.42h-5.19l.27,1.73V51.31L138.64,53Z" transform="translate(-7.31 -5.85)"/><path class="cls-2" d="M180.91,56.5H163.68V6.68h.56c2,0,3.14.14,3.49.42s.52,1.2.52,2.76v41L168,52.55h8.93c2,0,3.15.14,3.49.42s.52,1.2.52,2.77Z" transform="translate(-7.31 -5.85)"/><path class="cls-2" d="M206.51,36V6.68H207c2,0,3.15.14,3.5.42s.52,1.2.52,2.76V36c0,3.55,0,6.15-.11,7.78a45.92,45.92,0,0,1-.65,5.64,8.78,8.78,0,0,1-1.73,4.43q-3,3.18-8.79,3.18T192,54.7c-.55-.65-1-1.21-1.38-1.7a6.08,6.08,0,0,1-.9-2.38c-.23-1.11-.42-2-.56-2.74a25.79,25.79,0,0,1-.31-3.42c-.07-1.57-.1-2.81-.1-3.74v-34h.48c2,0,3.15.14,3.5.42s.52,1.2.52,2.76V38.61c0,1.46,0,2.7,0,3.74s.09,2.31.21,3.81a11.73,11.73,0,0,0,.55,3.18,11.08,11.08,0,0,0,1.07,2Q196.33,53,199.73,53q4.71,0,5.74-3.43T206.51,36Z" transform="translate(-7.31 -5.85)"/><path class="cls-1" d="M139.12,116.28h-.55c-2,0-3.15-.14-3.5-.41s-.52-1.2-.52-2.77V66.47h18.2v3.66H138.84l.28,1.73V85.63l-.28,1.73h12.94v4H138.84l.28,1.73Z" transform="translate(-7.31 -5.85)"/><path class="cls-1" d="M170.39,116.28h-.34c-2,0-3.15-.14-3.5-.41s-.51-1.2-.51-2.77V66.47h.34c2,0,3.15.13,3.5.41s.51,1.2.51,2.77Z" transform="translate(-7.31 -5.85)"/><path class="cls-1" d="M209.62,116.28a13.42,13.42,0,0,1-4.36-.41c-.55-.28-1.17-1.2-1.86-2.77l-9.34-20.48h-3.67l.28,1.73V113.1h.07c0,1.57-.18,2.49-.52,2.77s-1.51.41-3.5.41h-.41V66.33l7.89-.69q7.19,0,9.27,2.76a14,14,0,0,1,1.24,1.94,7.92,7.92,0,0,1,.62,2.56,46.09,46.09,0,0,1,.28,5.57c0,2.19,0,3.85-.1,5A23,23,0,0,1,205,87a7.75,7.75,0,0,1-1.18,2.87,6.82,6.82,0,0,1-5.39,2.7l11.48,23.73ZM194.2,88.68a9.62,9.62,0,0,0,5.46-1.32q1.18-.9,1.38-4.56c.05-.74.07-2,.07-3.67s0-2.93-.07-3.67a16.55,16.55,0,0,0-.38-2.56,3.39,3.39,0,0,0-1-2,9.7,9.7,0,0,0-5.46-1.31h-3.53V87l-.28,1.73Z" transform="translate(-7.31 -5.85)"/><path class="cls-1" d="M241.21,116H220V7.11h20.43v4.11H224.82l.31,1.95v44l-.31,1.94h14.53v4.43H224.82l.31,1.94v44.19l-.31,1.94h16.39Z" transform="translate(-7.31 -5.85)"/></svg>