<svg id="Capa_1" data-name="Capa 1" xmlns="http://www.w3.org/2000/svg" viewBox="0 0 482.12 433.86"><defs><style>.cls-1{fill:#ee7977;}.cls-2{fill:#657176;}.cls-3{fill:#00abb4;}</style></defs><title>ecudevs_logo</title><path class="cls-1" d="M67.67,439.09l6.19,3.25a33.78,33.78,0,0,1-7,9.66,28,28,0,0,1-9,5.58,31.26,31.26,0,0,1-11.29,1.92q-14,0-21.85-9.16a30.87,30.87,0,0,1-7.87-20.69,30.53,30.53,0,0,1,6.66-19.36Q32,399.48,46.14,399.48q14.6,0,23.31,11.07,6.19,7.81,6.3,19.52H24.39q.21,9.94,6.36,16.3a20.25,20.25,0,0,0,15.18,6.36,24.42,24.42,0,0,0,8.48-1.51,22.38,22.38,0,0,0,7-4A34,34,0,0,0,67.67,439.09Zm0-15.37a24.36,24.36,0,0,0-4.28-9.39A20.34,20.34,0,0,0,56,408.66a22.82,22.82,0,0,0-9.72-2.15,20.88,20.88,0,0,0-14.44,5.41q-4.43,3.93-6.68,11.8Z" transform="translate(-8.94 -33.07)"/><path class="cls-2" d="M144.85,412.81,139,416.43q-7.54-10-20.59-10-10.44,0-17.32,6.71a21.85,21.85,0,0,0-6.89,16.29,23.08,23.08,0,0,0,3.17,11.74,22.18,22.18,0,0,0,8.7,8.54,26.3,26.3,0,0,0,32.93-7l5.82,3.83a27.39,27.39,0,0,1-11,9.56,35,35,0,0,1-15.71,3.4q-13.53,0-22.45-8.61A28,28,0,0,1,86.78,430,29.93,29.93,0,0,1,91,414.56a29.31,29.31,0,0,1,11.46-11.09,33.43,33.43,0,0,1,16.32-4,35,35,0,0,1,10.94,1.73,30.7,30.7,0,0,1,8.94,4.51A24.54,24.54,0,0,1,144.85,412.81Z" transform="translate(-8.94 -33.07)"/><path class="cls-2" d="M158,401h7.35V427.6q0,9.76,1,13.43a15,15,0,0,0,6,8.29,18.26,18.26,0,0,0,10.59,3,17.85,17.85,0,0,0,10.43-3,15.22,15.22,0,0,0,5.91-7.79q1.11-3.3,1.1-14V401H208v28q0,11.81-2.76,17.79a20.94,20.94,0,0,1-8.29,9.36q-5.53,3.39-13.87,3.39t-13.93-3.39a20.76,20.76,0,0,1-8.34-9.44Q158,440.61,158,428.44Z" transform="translate(-8.94 -33.07)"/><path class="cls-3" d="M281.27,378.92V458H274v-9.81a31.56,31.56,0,0,1-10.36,8.45,28.14,28.14,0,0,1-12.57,2.83,27.84,27.84,0,0,1-20.69-8.79,29.46,29.46,0,0,1-8.58-21.38,28.89,28.89,0,0,1,8.66-21.09,28.22,28.22,0,0,1,20.82-8.76,27,27,0,0,1,12.73,3,29.13,29.13,0,0,1,10,9V378.92Zm-29.35,27.64A22.2,22.2,0,0,0,232.34,418a23.15,23.15,0,0,0,0,23.06,22.52,22.52,0,0,0,8.31,8.57,21.7,21.7,0,0,0,11.18,3.06,22.92,22.92,0,0,0,11.43-3,21.32,21.32,0,0,0,8.3-8.23,23.43,23.43,0,0,0,2.91-11.68A22.72,22.72,0,0,0,268,413.22,21.6,21.6,0,0,0,251.92,406.56Z" transform="translate(-8.94 -33.07)"/><path class="cls-2" d="M346,439.09l6.19,3.25a33.8,33.8,0,0,1-7,9.66,27.73,27.73,0,0,1-9,5.58,31.23,31.23,0,0,1-11.29,1.92q-14,0-21.84-9.16a30.88,30.88,0,0,1-7.88-20.69,30.54,30.54,0,0,1,6.67-19.36q8.46-10.82,22.63-10.81,14.59,0,23.32,11.07,6.19,7.81,6.3,19.52H302.67q.21,9.94,6.35,16.3a20.28,20.28,0,0,0,15.18,6.36,24.44,24.44,0,0,0,8.49-1.51,22.49,22.49,0,0,0,7-4A34.29,34.29,0,0,0,346,439.09Zm0-15.37a24.36,24.36,0,0,0-4.28-9.39,20.38,20.38,0,0,0-7.44-5.67,22.81,22.81,0,0,0-9.71-2.15,20.9,20.9,0,0,0-14.45,5.41q-4.41,3.93-6.67,11.8Z" transform="translate(-8.94 -33.07)"/><path class="cls-2" d="M362.32,401h7.81l19.16,41.61L408.22,401h7.87L390,458H388.6Z" transform="translate(-8.94 -33.07)"/><path class="cls-2" d="M456,407.19l-4.72,4.88q-5.89-5.71-11.52-5.72a8.73,8.73,0,0,0-6.13,2.36,7.3,7.3,0,0,0-2.55,5.51,8.16,8.16,0,0,0,2.1,5.3c1.41,1.71,4.35,3.73,8.84,6q8.2,4.26,11.14,8.19a14.91,14.91,0,0,1,2.9,9,16.11,16.11,0,0,1-4.94,11.91,16.89,16.89,0,0,1-12.35,4.88,21.62,21.62,0,0,1-9.43-2.15,20.49,20.49,0,0,1-7.44-5.93l4.62-5.25q5.63,6.34,11.94,6.35a10.76,10.76,0,0,0,7.52-2.83A8.78,8.78,0,0,0,449,443a8.58,8.58,0,0,0-2.05-5.62q-2.06-2.42-9.26-6.08-7.73-4-10.51-7.87a14.83,14.83,0,0,1-2.79-8.87,14.42,14.42,0,0,1,4.44-10.81,15.5,15.5,0,0,1,11.22-4.3Q448,399.48,456,407.19Z" transform="translate(-8.94 -33.07)"/><polyline class="cls-2" points="190.49 0 190.49 42.55 59.01 136.05 190.49 220.39 190.49 261.42 0 136.23"/><polyline class="cls-2" points="291.63 325.47 291.63 282.92 423.11 189.42 291.63 105.08 291.63 64.05 482.12 189.24"/><path class="cls-1" d="M483.67,406.18a6.64,6.64,0,1,1-6.63-6.63,6.63,6.63,0,0,1,6.63,6.63" transform="translate(-8.94 -33.07)"/><polyline class="cls-3" points="467.31 410.73 474.26 414.14 463.83 433.86 458.61 431.67"/></svg>